<svg data-v-423bf9ae="" xmlns="http://www.w3.org/2000/svg" viewBox="0 0 132.81269198097405 60" class="font"><!----><!----><!----><g data-v-423bf9ae="" id="30411bda-867c-489b-ac48-12c63dc5dd14" fill="#3336F9" transform="matrix(6.179196680152662,0,0,6.179196680152662,-3.024756153101876,-33.92378788289508)"><path d="M5.28 8.36C5.28 9.97 3.56 9.77 2.58 9.79C2.53 9.74 2.48 9.73 2.45 9.69C2.44 9.51 2.30 8.50 2.30 8.05C2.30 7.95 2.31 7.53 2.35 7.31C2.66 7.27 3.25 7.17 3.36 7.17C3.68 7.17 5.28 7.39 5.28 8.36ZM7.08 8.39C7.08 7.21 6.79 6.15 5.04 5.75C4.70 5.68 3.91 5.54 3.81 5.54C3.70 5.54 3.49 5.61 3.36 5.57C2.98 5.47 1.82 5.68 1.60 5.68C1.48 5.68 1.01 5.59 0.90 5.59C0.78 5.59 0.67 5.63 0.60 5.68C0.49 6.27 0.49 7.36 0.49 7.46C0.49 7.57 0.48 8.64 0.55 9.18C0.56 9.31 0.63 9.44 0.63 9.55L0.63 10.98C0.63 12.60 0.62 11.37 0.73 14.64C0.73 14.78 0.77 15.02 0.77 15.20L2.14 15.20C2.52 15.09 2.25 14.64 2.25 14.42L2.25 12.60C2.25 12.49 2.34 11.80 2.35 11.40C2.48 11.26 2.60 11.23 2.70 11.23C2.80 11.23 3.78 11.45 3.88 11.45C5.11 11.45 7.08 10.04 7.08 8.39ZM19.15 7.90C19.15 7.29 19.17 6.09 18.96 5.70C18.83 5.63 17.56 5.49 17.47 5.49C17.28 5.49 17.08 5.63 17.01 5.78C15.96 8.09 14.87 10.44 13.87 12.78C13.83 12.82 13.82 12.82 13.78 12.82C13.17 12.25 12.85 10.67 12.53 9.86C12.29 9.24 11.75 8.53 11.55 8.06C11.42 7.73 11.20 7.18 10.96 6.78C10.77 6.47 10.64 5.95 10.44 5.73C10.23 5.50 9.86 5.49 9.76 5.49C9.65 5.49 9.32 5.61 9.09 5.66C8.86 5.70 8.62 5.68 8.44 5.68C8.39 7.24 8.29 8.82 8.13 10.32C8.11 10.64 8.02 11.23 8.02 11.33C8.02 11.44 8.16 12.50 8.16 12.61L8.16 14.29C8.16 14.36 8.29 15.06 8.58 15.15C8.76 15.19 9.16 15.15 9.25 15.15C9.37 15.15 9.79 15.15 9.98 15.09C9.98 14.41 10.02 13.71 9.97 13.06C9.94 12.74 9.88 12.33 9.91 12.07C9.93 11.91 10.04 11.62 10.04 11.52L10.04 9.95C10.04 9.69 9.84 9.17 10.09 9.10C10.19 9.20 10.28 9.30 10.29 9.37C10.46 10.05 10.85 10.86 11.06 11.24C11.17 11.47 11.55 11.72 11.66 11.94C12.45 13.37 12.47 14.28 13.24 15.15L14.38 15.15C15.41 13.79 16.25 10.78 17.39 9.30C17.43 9.34 17.40 9.34 17.40 9.45C17.40 9.56 17.29 10.64 17.33 11.19C17.35 11.40 17.36 11.58 17.35 11.69C17.32 11.86 17.36 12.10 17.36 12.21L17.36 13.79C17.36 14.18 17.16 13.99 17.46 15.09C17.64 15.11 17.91 15.15 18.00 15.15C18.12 15.15 18.31 15.08 18.45 15.04C18.59 14.99 18.77 14.99 18.91 15.01C18.96 14.50 19.01 13.58 19.01 13.45C19.01 13.34 18.97 12.61 18.97 10.56C18.97 9.67 19.15 8.01 19.15 7.90ZM21.97 14.97C22.02 14 21.97 13.24 21.01 13.24C20.31 13.24 20.06 13.65 20.06 14.21C20.06 15.11 20.51 15.19 21.13 15.19C21.36 15.19 21.80 15.19 21.97 14.97Z"></path></g><!----><!----></svg>