<svg width="24" height="24" viewBox="0 0 1000 1000" xmlns="http://www.w3.org/2000/svg"><path d=" M 500 171C 499 171 499 171 498 171C 417 172 351 239 350 325C 350 325 350 462 350 462C 350 462 650 462 650 462C 650 462 650 325 650 325C 650 325 650 325 650 325C 650 324 650 323 650 322C 647 236 580 171 500 171C 500 171 500 171 500 171M 500 71C 634 71 745 181 750 318C 750 320 750 323 750 325C 750 325 750 325 750 325C 750 325 750 463 750 463C 784 464 812 493 812 528C 812 528 812 872 812 872C 812 908 783 937 747 937C 747 937 253 937 253 937C 217 937 188 908 188 872C 188 872 188 528 188 528C 188 493 216 464 250 463C 250 463 250 325 250 325C 250 325 250 325 250 325C 250 325 250 325 250 324C 252 187 361 73 497 71C 498 71 499 71 500 71C 500 71 500 71 500 71"/></svg>